<svg width="694" height="656" viewBox="0 0 694 656" fill="none" xmlns="http://www.w3.org/2000/svg">
<path d="M208.016 214.716C55.1202 346.81 139.109 496.846 171.612 551.451C106.606 528.049 81.4696 469.976 74.1022 456.541C11.6957 269.322 128.708 141.909 195.015 101.605C466.483 -11.7673 644.862 180.913 633.16 322.628C620.679 288.304 562.953 220.784 539.551 206.915C398.096 115.386 262.188 171.378 208.016 214.716Z" fill="#FFEFA6"/>
<path d="M228.819 199.115C21.8375 350.971 125.242 514.614 202.816 577.454L217.118 585.255C144.31 465.642 217.118 368.132 262.623 334.329C442.041 218.617 552.552 356.431 642.262 375.933C618.859 80.8022 301.627 145.698 228.819 199.115Z" fill="#EF7358"/>
<path d="M380.934 274.522C157.311 316.127 163.812 498.146 214.517 573.553C179.116 355.5 374.434 427.938 380.934 427.938C501.251 477.225 572.575 460.346 609.602 431.505C635.744 411.141 638.409 372.358 618.598 345.795C566.388 275.791 444.531 267.943 380.934 274.522Z" fill="#B22C6C"/>
<path d="M543.451 240.719C556.019 255.887 578.555 305.986 568.154 385.034" stroke="black" stroke-width="10.4011"/>
<path d="M184.614 353.831C192.848 338.229 221.278 311.706 269.123 330.428" stroke="black" stroke-width="10.4011"/>
<path d="M266.522 231.618C298.592 226.851 363.253 232.138 365.333 291.424" stroke="black" stroke-width="10.4011"/>
<path d="M408.237 151.01C408.671 169.211 430.86 208.736 516.149 221.217C546.485 226.417 609.758 238.639 620.159 245.919C630.56 253.2 622.76 248.953 617.559 245.919" stroke="black" stroke-width="10.4011"/>
<path d="M453.742 203.015C446.808 216.883 437.62 249.04 456.342 266.722C465.443 275.822 484.165 297.145 486.245 309.626" stroke="black" stroke-width="10.4011"/>
<path d="M495.346 217.316C521.349 225.117 585.575 258.401 603.257 297.925C609.325 315.26 625.36 351.49 640.961 357.731" stroke="black" stroke-width="10.4011"/>
<path d="M242.746 426.752C202.182 451.714 218.044 551.795 231.045 596L160.838 556.996C51.6265 487.309 45.1258 369.343 55.5269 319.071C72.1687 183.857 187.274 103.249 242.746 79.8462C380.041 24.7204 513.608 96.9508 562.58 144.622C635.387 216.13 654.889 348.974 634.087 404.88C613.285 460.786 526.176 464.456 471.57 451.454C338.956 399.449 261.382 412.884 242.746 426.752Z" stroke="black" stroke-width="20.8022"/>
<path d="M261.322 333.028C187.474 396.475 204.549 505.947 222.318 552.751C184.874 412.337 282.991 402.369 336.729 414.937C515.628 480.464 582.022 456.975 592.856 437.039C574.134 370.472 515.715 324.361 488.845 309.626C392.115 265.941 296.859 307.026 261.322 333.028Z" stroke="black" stroke-width="10.4011"/>
<path d="M219.718 589.155C182.88 522.415 134.429 363.712 235.319 262.821C292.092 196.081 445.941 87.3028 586.356 180.913" stroke="black" stroke-width="10.4011"/>
<path d="M188.514 576.154C148.643 508.547 88.6637 338.749 167.712 200.415C189.381 160.11 254.561 75.8616 341.93 61.3" stroke="black" stroke-width="10.4011"/>
<path d="M59.8008 381.134C68.9017 392.835 95.9445 416.237 131.308 416.237" stroke="black" stroke-width="10.4011"/>
<path d="M84.5034 229.018C84.5034 229.018 95.4246 290.644 133.909 297.925" stroke="black" stroke-width="10.4011"/>
<path d="M130.008 331.728V359.031C145.61 370.299 176.553 394.915 175.513 403.236" stroke="black" stroke-width="10.4011"/>
<path d="M179.413 178.312C172.913 203.015 170.832 259.701 214.517 288.824" stroke="black" stroke-width="10.4011"/>
<path d="M218.417 131.507C223.887 146.55 240.146 170.709 267.192 171.559C283.522 172.072 300.451 163.956 315.491 170.336C322.339 173.24 327.02 178.148 325.028 186.113" stroke="black" stroke-width="10.4011"/>
<path d="M293.825 78.2019C300.759 86.0027 312.287 107.585 302.926 131.507C296.426 141.909 286.284 164.011 297.726 169.211" stroke="black" stroke-width="10.4011"/>
<path d="M391.335 63.9004C379.201 82.5357 358.572 128.647 373.134 164.011" stroke="black" stroke-width="10.4011"/>
<path d="M479.745 93.8035C475.411 101.604 460.243 116.426 434.24 113.306C413.004 112.872 370.533 113.566 370.533 119.806" stroke="black" stroke-width="10.4011"/>
<path d="M300.326 309.626C319.828 326.094 360.392 371.512 366.633 421.438" stroke="black" stroke-width="10.4011"/>
<path d="M343.23 362.932C360.566 350.364 405.117 337.449 444.641 386.334C453.742 401.502 471.684 436.259 470.644 453.941" stroke="black" stroke-width="10.4011"/>
<path d="M509.648 322.627C513.035 331.556 516.99 350.371 513.776 370.589C511.044 387.772 503.471 404.027 501.883 421.353C500.502 436.417 500.719 452.227 505.747 459.142" stroke="black" stroke-width="10.4011"/>
</svg>
